<svg width="224" height="144" viewBox="0 0 224 144" fill="none" xmlns="http://www.w3.org/2000/svg">
<path d="M216.298 144C219.886 144 222.815 141.111 222.869 137.508C223.144 119.55 224.585 93.0621 190.905 85.7364C163.65 79.8086 179.81 31.1717 106.409 34.3144C53.7179 36.5702 67.7159 81.1657 26.7478 84.8796C-0.513079 87.351 -0.748367 121.972 0.298754 137.834C0.527794 141.304 3.39459 144 6.85776 144H216.298Z" fill="#CEE2FF"/>
<path d="M217.31 144H203.038C203.331 125.918 204.391 99.7162 170.914 92.4131C165.985 91.3377 162.47 88.8676 159.588 85.5593L162.368 51.8636C173.672 65.4486 176.53 81.9589 191.798 85.2892C221.406 91.7488 223.998 112.991 223.999 130.324C223.999 132.8 223.947 135.196 223.912 137.458C223.857 141.089 220.914 144 217.31 144Z" fill="#B7D3FF"/>
<path d="M34.274 53.4902C36.0688 53.4902 37.6289 52.1205 37.8713 50.252C37.9144 49.9168 37.937 49.5747 37.937 49.2271C37.937 45.0659 34.7279 41.6933 30.769 41.6933C30.6065 41.6933 30.4458 41.7009 30.2862 41.7122C29.959 37.6093 26.6886 34.3862 22.7001 34.3862C18.4944 34.3862 15.0852 37.9693 15.0852 42.389C15.0852 42.5849 15.0943 42.7787 15.1077 42.9713C13.9137 42.2708 12.5232 41.8962 11.0438 41.9675C7.21874 42.1515 4.07597 45.3671 3.80519 49.3809L3.79934 49.4764C3.67619 51.6595 5.35539 53.4902 7.43622 53.4902H34.274Z" fill="#B7D3FF"/>
<path d="M215.459 60.7568C221.129 60.7568 221.444 51.8701 215.78 51.5833C215.625 51.5759 215.47 51.5716 215.313 51.5716C214.302 51.5716 213.329 51.7385 212.415 52.0439C211.657 47.2341 207.649 43.5632 202.815 43.5632C197.876 43.5632 193.798 47.3978 193.172 52.3639C191.999 51.7786 190.686 51.4507 189.3 51.4507C188.525 51.4507 187.774 51.5528 187.057 51.7449C182.098 53.0748 183.139 60.7568 188.259 60.7568H215.459Z" fill="#B7D3FF"/>
<path d="M139.516 17.1934C145.485 17.1934 145.815 8.3068 139.854 8.01998C139.691 8.01249 139.527 8.00821 139.363 8.00821C138.298 8.00821 137.274 8.17515 136.312 8.4807C135.514 3.6706 131.295 -0.000255585 126.207 -0.000255585C121.007 -0.000255585 116.715 3.83434 116.055 8.80016C114.822 8.21528 113.44 7.88727 111.98 7.88727C111.165 7.88727 110.373 7.98948 109.619 8.18158C104.4 9.51133 105.495 17.1934 110.884 17.1934H139.516Z" fill="#B7D3FF"/>
<path d="M39.1579 131.661C39.1579 131.661 38.0048 130.576 38.7786 126.461C39.5526 122.346 41.5162 118.394 40.5532 113.93C39.5898 109.465 32.0362 98.208 32.0108 97.4593C31.9855 96.711 29.6804 110.555 33.5868 116.009C37.493 121.462 37.9628 123.354 37.7895 126.222C37.6161 129.09 37.8295 131.4 38.2582 132.066L39.1579 131.661Z" fill="#B7D3FF"/>
<path d="M38.44 123.382C37.9861 125.219 37.7118 129.821 38.4375 130.923C38.5052 131.026 38.6025 130.968 38.7237 130.777C38.5026 130.017 38.3575 128.683 38.7756 126.459C39.5496 122.344 41.5132 118.392 40.5503 113.928C39.5868 109.463 32.0333 98.2065 32.0078 97.4578C32.0078 97.4578 33.146 106.837 36.9795 113.292C39.7238 117.914 38.8942 121.547 38.44 123.382Z" fill="#9BC3FF"/>
<path d="M40.5329 131.376C40.5329 131.376 38.314 125.796 42.0749 120.964C45.8356 116.133 51.8501 109.93 51.9698 107.472C51.9698 107.472 53.5158 119.14 48.6205 122.444C43.7253 125.746 40.2921 126.273 41.141 131.354L40.5329 131.376Z" fill="#B7D3FF"/>
<path d="M45.8162 120.095C40.3582 124.096 39.9116 128.705 40.759 130.843C40.8247 131.01 40.9495 131.111 41.1139 131.165C40.3822 126.26 43.7874 125.702 48.6205 122.441C53.5158 119.138 51.9697 107.47 51.9697 107.47C51.9697 107.47 51.2746 116.094 45.8162 120.095Z" fill="#9BC3FF"/>
<path d="M36.8848 131.501C36.8848 131.501 37.5968 128.546 37.218 125.356C36.8395 122.166 33.5307 120.372 30.4395 117.003C28.8489 115.269 28.3785 106.102 29.3645 105.251C29.3645 105.251 23.9066 111.912 24.7484 116.789C25.5902 121.667 34.494 124.837 35.3182 127.193C36.1422 129.55 36.074 131.528 36.074 131.528L36.8848 131.501Z" fill="#B7D3FF"/>
<path d="M27.5203 107.871C25.7163 112.791 27.5655 118.75 33.5579 122.45C37.9693 125.176 36.5645 130.841 36.5645 130.841L37.2852 128.606C37.3491 127.639 37.356 126.514 37.2184 125.355C36.8398 122.165 33.531 120.371 30.4398 117.002C28.9058 115.33 28.4141 106.746 29.2656 105.374C29.0156 105.691 28.3094 106.612 27.5203 107.871Z" fill="#9BC3FF"/>
<path d="M29.2656 105.373C29.3284 105.294 29.366 105.248 29.366 105.248C29.3306 105.279 29.2974 105.323 29.2656 105.373Z" fill="#5DB8D9"/>
<path d="M41.6777 131.13C41.6777 131.13 42.9564 126.35 46.1208 125.706C49.2846 125.063 52.9175 120.354 53.114 119.431C53.114 119.431 52.5804 128.311 41.6777 131.13Z" fill="#B7D3FF"/>
<path d="M45.9411 127.288C44.0025 128.264 43.1963 129.578 42.9102 130.77C52.6171 127.626 53.1151 119.432 53.1151 119.432C53.0764 119.615 52.8987 119.949 52.6217 120.367C51.6699 122.046 49.3652 125.564 45.9411 127.288Z" fill="#9BC3FF"/>
<path d="M48.5237 129.369H31.9766L33.9415 141.816C34.0906 142.76 34.8989 143.455 35.8481 143.455H44.652C45.6013 143.455 46.4099 142.76 46.5586 141.816L48.5237 129.369Z" fill="#196EE5"/>
<path d="M48.1988 131.43L48.5237 129.371H31.9766L32.3014 131.43H48.1988Z" fill="#1458B8"/>
<path d="M44.5123 129.369L42.5472 141.816C42.398 142.76 41.5898 143.455 40.6406 143.455H44.6493C45.5985 143.455 46.4072 142.76 46.5559 141.816L48.521 129.369H44.5123Z" fill="#1458B8"/>
<path d="M137.588 133.688H137.579L135.918 129.636H135.929L137.588 133.688ZM79.5801 133.688L81.2378 129.636H81.2391L79.5801 133.688Z" fill="#B1C3A9"/>
<path d="M140.041 139.714H77.1074L86.7332 116.214V116.199L90.6056 106.717L91.6726 104.117L93.411 99.8861L93.7649 99.0243L97.6373 89.5413L98.349 87.8176L105.21 71.0401C106.448 68.0155 110.701 68.0155 111.939 71.0401L118.8 87.8176L119.511 89.5413L123.382 99.0243L123.739 99.8861L125.477 104.117L126.543 106.717L130.415 116.199V116.214L140.041 139.714Z" fill="#196EE5"/>
<path d="M137.579 133.688H79.5801L81.2391 129.636H127.011L128.669 133.683H137.57L135.914 129.636H135.918L137.579 133.688Z" fill="#196EE5"/>
<path d="M72.0801 143.952H144.162V133.69H72.0801V143.952Z" fill="#4C5053"/>
<path d="M128.588 143.952H144.162V133.69H128.588V143.952Z" fill="#25282B"/>
<path d="M135.907 129.638H127.004L121.512 116.22V116.206L117.639 106.723L116.574 104.124L114.835 99.8933L114.479 99.0301L110.608 89.5471L109.896 87.8221L104.129 73.6992L105.208 71.046C105.827 69.5337 107.201 68.7775 108.573 68.7775C109.946 68.7775 111.318 69.5337 111.937 71.046L118.798 87.8221L119.51 89.5471L123.381 99.0301L123.737 99.8933L125.476 104.124L126.541 106.723L130.414 116.206V116.214V116.22L135.907 129.638Z" fill="#1458B8"/>
<path d="M137.566 133.685H128.664L127.006 129.637H135.909L137.566 133.685Z" fill="#1458B8"/>
<path d="M123.382 99.0205H93.7656L97.6367 89.5375H119.511L123.382 99.0205Z" fill="white"/>
<path d="M130.42 116.198V116.213H86.7383V116.198L90.6106 106.716H126.548L130.42 116.198Z" fill="white"/>
<path d="M123.382 99.0205H114.48L110.609 89.5375H119.511L123.382 99.0205Z" fill="#F6F9FE"/>
<path d="M130.421 116.198V116.213H121.519V116.198L117.646 106.716H126.549L130.421 116.198Z" fill="#F6F9FE"/>
</svg>
